<svg width="100" height="100" viewBox="0 0 100 100" fill="none"
  xmlns="http://www.w3.org/2000/svg">
  <rect width="100" height="100" rx="50" fill="#E3E2C7"/>
  <path d="M30.6229 34.1753C38.7714 34.1753 40.6785 45.2711 48.4802 48.9119C48.4802 45.9646 47.2666 42.6705 46.2264 39.2031C45.0128 35.7357 43.7992 32.2682 43.7992 29.3209C43.7992 25.3334 46.5731 22.3861 50.0405 22.3861C53.508 22.3861 56.1086 25.3334 56.1086 29.3209C56.1086 36.7759 50.3873 42.8439 51.2541 48.9119C59.0559 45.0977 60.6162 34.1753 68.9381 34.1753C72.7522 34.1753 75.5262 36.6025 75.5262 40.07C75.5262 49.2587 57.6689 47.3516 52.6411 51.5125C56.9754 55.3267 75.5262 53.0728 75.5262 62.955C75.5262 66.2491 72.7522 68.8496 69.1114 68.8496C61.4831 68.8496 59.576 58.4474 51.2541 54.1131C51.0808 57.2337 52.2944 60.5278 53.508 63.8219C54.8949 66.9426 56.1086 70.2366 56.1086 73.704C56.1086 77.6916 53.508 80.6389 50.0405 80.6389C46.5731 80.6389 43.7992 77.6916 43.7992 73.704C43.7992 66.9426 48.6536 60.5278 48.4802 54.2864C41.7187 56.5403 38.4246 68.8496 30.6229 68.8496C27.1555 68.8496 24.3816 66.2491 24.3816 62.955C24.3816 53.4196 41.8921 55.5 46.9199 51.5125C40.5051 47.0048 24.3816 49.0853 24.3816 40.07C24.3816 36.7759 27.1555 34.1753 30.6229 34.1753Z" fill="#267A18"/>
</svg>
