<svg width="175" height="80" viewBox="0 0 175 80" fill="none" xmlns="http://www.w3.org/2000/svg">
<path d="M20.2877 23.0501V56.9367C20.2877 61.9945 21.3624 62.6899 25.9144 62.6899V63.7646H8.71818V62.6899C13.2701 62.7531 14.3449 62.0577 14.3449 56.9367V23.0501H9.85616C4.67202 23.0501 2.71216 24.9468 2.58571 30.447H1.57417V20.6477H33.0584V30.447H32.0468C31.9204 25.01 30.0238 23.0501 24.8396 23.0501H20.2877ZM41.9671 44.9247V40.4992C41.9671 37.0853 40.6395 35.3151 38.1106 35.3151C35.9611 35.3151 34.2541 36.9588 34.2541 38.9819C34.2541 39.9934 34.8231 40.9418 34.8231 41.8901C34.8231 43.1545 33.6852 44.2293 32.2311 44.2293C30.5873 44.2293 29.4493 42.9016 29.4493 40.9418C29.4493 37.0853 33.7484 33.9874 39.1222 33.9874C43.8638 33.9874 47.0248 36.3898 47.0248 40.8785V57.9483C47.0248 60.0346 47.5938 60.9197 48.6686 60.9197C49.364 60.9197 49.8698 60.6668 50.9446 59.8449V60.9197C49.364 63.3221 47.4042 64.6497 45.5075 64.6497C43.2316 64.6497 42.0304 62.8163 42.0304 59.3392H41.9039C39.9441 62.9428 37.6049 64.6497 34.8231 64.6497C31.0931 64.6497 28.4378 61.8048 28.4378 57.8218C28.4378 54.3447 29.8919 51.1836 36.4669 47.7697L41.9671 44.9247ZM41.9671 46.6949C36.1508 49.6031 33.6852 51.9423 33.6852 55.7988C33.6852 58.7702 35.2025 60.9197 37.2255 60.9197C38.7429 60.9197 40.2602 59.9081 41.9671 57.6322V46.6949ZM58.8146 33.9874V39.9302H58.9411C61.0906 35.8841 63.5562 33.9874 66.6541 33.9874C70.0048 33.9874 72.0279 36.2634 72.344 40.3095H72.4704C74.8096 35.8841 77.1488 33.9874 80.3099 33.9874C84.356 33.9874 86.3791 37.0853 86.3791 43.281V58.3276C86.3791 61.3622 87.6435 62.5634 89.2241 62.6899V63.7646H77.9707V62.6899C80.2466 62.6899 81.3214 61.2358 81.3214 57.8851V43.281C81.3214 39.3612 80.3099 37.7175 77.9075 37.7175C76.0108 37.7175 74.6832 38.729 72.5969 41.7636V57.8851C72.5969 61.3622 73.7349 62.5634 76.074 62.6899V63.7646H64.1884V62.6899C66.6541 62.6267 67.5392 60.8565 67.5392 57.8851V43.5338C67.5392 39.5509 66.4644 37.7175 64.062 37.7175C62.2286 37.7175 60.4584 39.0451 58.8146 41.7636V57.8851C58.8146 60.7932 59.4468 62.5002 62.2286 62.6899V63.7646H50.6591V62.6899C52.8086 62.3106 53.7569 61.1726 53.7569 58.7702V40.8785C53.7569 39.1083 53.2512 38.2865 52.05 38.2865C51.6074 38.2865 51.2913 38.3497 50.6591 38.5394L50.343 37.591L57.7399 33.9874H58.8146ZM107.083 52.7009L108.158 52.9538C107.273 60.161 103.859 64.6497 99.3069 64.6497C93.3641 64.6497 89.4444 58.6437 89.4444 49.7295C89.4444 40.3095 93.617 33.9874 99.8126 33.9874C103.859 33.9874 107.526 37.0853 107.526 40.5624C107.526 42.2062 106.324 43.3442 104.617 43.3442C102.721 43.3442 101.33 42.0165 101.33 40.1831C101.33 39.7406 101.646 38.9819 101.646 38.2865C101.646 37.022 100.571 36.0737 99.1804 36.0737C96.0826 36.0737 94.5021 39.6141 94.5021 46.1891C94.5021 54.5343 97.0309 59.592 101.267 59.592C104.112 59.592 106.198 57.1264 107.083 52.7009ZM116.55 18.6879V39.6773H116.677C119.964 34.999 121.988 33.9874 124.706 33.9874C129.005 33.9874 130.902 37.7175 130.902 42.5223V57.8851C130.902 60.7932 132.04 62.5634 134 62.6899V63.7646H122.114V62.6899C124.58 62.6899 125.844 61.4255 125.844 57.8851V43.6603C125.844 39.4245 124.769 37.7175 122.177 37.7175C120.154 37.7175 118.826 38.6026 116.55 41.574V58.2644C116.55 61.1726 117.878 62.6267 120.217 62.6899V63.7646H108.016V62.6899C110.165 62.6899 111.493 61.4887 111.493 57.8851V26.6538C111.493 23.9985 110.861 22.9869 109.217 22.9869C108.901 22.9869 108.648 23.0501 108.205 23.1766L107.826 22.165L115.476 18.6879H116.55ZM147.86 44.9247V40.4992C147.86 37.0853 146.533 35.3151 144.004 35.3151C141.854 35.3151 140.147 36.9588 140.147 38.9819C140.147 39.9934 140.716 40.9418 140.716 41.8901C140.716 43.1545 139.578 44.2293 138.124 44.2293C136.48 44.2293 135.343 42.9016 135.343 40.9418C135.343 37.0853 139.642 33.9874 145.015 33.9874C149.757 33.9874 152.918 36.3898 152.918 40.8785V57.9483C152.918 60.0346 153.487 60.9197 154.562 60.9197C155.257 60.9197 155.763 60.6668 156.838 59.8449V60.9197C155.257 63.3221 153.297 64.6497 151.401 64.6497C149.125 64.6497 147.924 62.8163 147.924 59.3392H147.797C145.837 62.9428 143.498 64.6497 140.716 64.6497C136.986 64.6497 134.331 61.8048 134.331 57.8218C134.331 54.3447 135.785 51.1836 142.36 47.7697L147.86 44.9247ZM147.86 46.6949C142.044 49.6031 139.578 51.9423 139.578 55.7988C139.578 58.7702 141.096 60.9197 143.119 60.9197C144.636 60.9197 146.153 59.9081 147.86 57.6322V46.6949Z" fill="#267A18"/>
<path d="M158.427 17.2223C161.399 17.2223 162.094 21.2684 164.939 22.5961C164.939 21.5213 164.496 20.3201 164.117 19.0557C163.674 17.7913 163.232 16.5268 163.232 15.4521C163.232 13.998 164.243 12.9232 165.508 12.9232C166.772 12.9232 167.721 13.998 167.721 15.4521C167.721 18.1706 165.634 20.3833 165.95 22.5961C168.795 21.2052 169.364 17.2223 172.399 17.2223C173.79 17.2223 174.801 18.1074 174.801 19.3718C174.801 22.7225 168.29 22.0271 166.456 23.5444C168.037 24.9353 174.801 24.1134 174.801 27.717C174.801 28.9182 173.79 29.8665 172.462 29.8665C169.681 29.8665 168.985 26.0732 165.95 24.4927C165.887 25.6307 166.33 26.8319 166.772 28.0331C167.278 29.1711 167.721 30.3723 167.721 31.6367C167.721 33.0908 166.772 34.1656 165.508 34.1656C164.243 34.1656 163.232 33.0908 163.232 31.6367C163.232 29.1711 165.002 26.8319 164.939 24.5559C162.473 25.3778 161.272 29.8665 158.427 29.8665C157.163 29.8665 156.151 28.9182 156.151 27.717C156.151 24.2398 162.537 24.9985 164.37 23.5444C162.031 21.9006 156.151 22.6593 156.151 19.3718C156.151 18.1706 157.163 17.2223 158.427 17.2223Z" fill="#267A18"/>
</svg>
