<svg width="100" height="100" viewBox="0 0 100 100" fill="none" xmlns="http://www.w3.org/2000/svg">
<path d="M30.7851 33.633C38.7544 33.633 40.6196 44.4849 48.2499 48.0457C48.2499 45.1632 47.0629 41.9415 46.0456 38.5503C44.8586 35.1591 43.6717 31.7678 43.6717 28.8853C43.6717 24.9854 46.3847 22.1028 49.7759 22.1028C53.1671 22.1028 55.7106 24.9854 55.7106 28.8853C55.7106 36.1764 50.115 42.1111 50.9628 48.0457C58.5931 44.3154 60.1192 33.633 68.2581 33.633C71.9884 33.633 74.7014 36.0069 74.7014 39.3981C74.7014 48.3848 57.2366 46.5197 52.3193 50.5891C56.5584 54.3195 74.7014 52.1152 74.7014 61.7802C74.7014 65.0018 71.9884 67.5453 68.4277 67.5453C60.967 67.5453 59.1018 57.3716 50.9628 53.1325C50.7933 56.1847 51.9802 59.4063 53.1671 62.628C54.5236 65.6801 55.7106 68.9017 55.7106 72.293C55.7106 76.1929 53.1671 79.0754 49.7759 79.0754C46.3847 79.0754 43.6717 76.1929 43.6717 72.293C43.6717 65.6801 48.4194 59.4063 48.2499 53.3021C41.637 55.5064 38.4153 67.5453 30.7851 67.5453C27.3938 67.5453 24.6809 65.0018 24.6809 61.7802C24.6809 52.4543 41.8065 54.489 46.7238 50.5891C40.4501 46.1805 24.6809 48.2153 24.6809 39.3981C24.6809 36.1764 27.3938 33.633 30.7851 33.633Z" fill="#267A18"/>
</svg>
